<svg xmlns="http://www.w3.org/2000/svg" viewBox="0 0 97.42445 80.73849"><defs><style>.a{fill:#000000;fill-rule:evenodd;}</style></defs><path class="a" d="M7.9852,44.38815Q47.21338,27.297,60.30174,21.85316C85.215,11.49087,90.39176,9.69082,93.7659,9.63139a5.89969,5.89969,0,0,1,3.47625,1.043,3.77952,3.77952,0,0,1,1.27676,2.42944,15.82135,15.82135,0,0,1,.15,3.53157c-1.35006,14.18518-7.19174,48.60888-10.16366,64.49653-1.25753,6.72265-3.73364,8.97673-6.13081,9.19732-5.2096.47939-9.16552-3.44287-14.21127-6.75041-7.8956-5.17567-12.35611-8.39753-20.02015-13.448-8.85713-5.83672-3.11542-9.04467,1.93223-14.28739,1.321-1.372,24.27459-22.2501,24.71885-24.14407a1.83234,1.83234,0,0,0-.41741-1.58605,2.06677,2.06677,0,0,0-1.8574-.18q-1.18785.26959-37.84,25.01082Q29.309,58.6318,24.95071,58.53765c-3.2031-.0692-9.36455-1.81107-13.945-3.3C5.38769,53.41146.92256,52.44593,1.31138,49.34446Q1.61515,46.9213,7.9852,44.38815Z" transform="translate(-1.28777 -9.63075)"/></svg>
